{
  "accessors": [
    {
      "bufferView": 2,
      "componentType": 5126,
      "count": 2750,
      "max": [
        0.4228048324584961,
        0.46473750472068787,
        0.4612344801425934
      ],
      "min": [
        -0.44500303268432617,
        -0.42708778381347656,
        -0.4197229743003845
      ],
      "type": "VEC3"
    },
    {
      "bufferView": 2,
      "byteOffset": 33000,
      "componentType": 5126,
      "count": 2750,
      "max": [
        0.9939199686050415,
        0.9984219074249268,
        0.993247926235199
      ],
      "min": [
        -0.9970482587814331,
        -0.9988080859184265,
        -0.9995508790016174
      ],
      "type": "VEC3"
    },
    {
      "bufferView": 1,
      "componentType": 5126,
      "count": 2750,
      "max": [
        0.6142107248306274,
        0.10393345355987549
      ],
      "min": [
        0.5953007936477661,
        0.08502352237701416
      ],
      "type": "VEC2"
    },
    {
      "bufferView": 0,
      "componentType": 5125,
      "count": 3246,
      "type": "SCALAR"
    },
    {
      "bufferView": 2,
      "byteOffset": 66000,
      "componentType": 5126,
      "count": 986,
      "max": [
        0.294126957654953,
        0.30768775939941406,
        0.4581202566623688
      ],
      "min": [
        -0.33201172947883606,
        -0.2640305161476135,
        -0.43519270420074463
      ],
      "type": "VEC3"
    },
    {
      "bufferView": 2,
      "byteOffset": 77832,
      "componentType": 5126,
      "count": 986,
      "max": [
        0.9981094598770142,
        0.9932020902633667,
        0.989764392375946
      ],
      "min": [
        -0.9922294020652771,
        -0.999545693397522,
        -0.9861205220222473
      ],
      "type": "VEC3"
    },
    {
      "bufferView": 1,
      "byteOffset": 22000,
      "componentType": 5126,
      "count": 986,
      "max": [
        0.22855383157730103,
        0.9817763566970825
      ],
      "min": [
        0.08480316400527954,
        0.7653223276138306
      ],
      "type": "VEC2"
    },
    {
      "bufferView": 0,
      "byteOffset": 12984,
      "componentType": 5125,
      "count": 1050,
      "type": "SCALAR"
    },
    {
      "bufferView": 2,
      "byteOffset": 89664,
      "componentType": 5126,
      "count": 610,
      "max": [
        0.406221866607666,
        0.45066773891448975,
        0.4777129888534546
      ],
      "min": [
        -0.442446231842041,
        -0.45209911465644836,
        -0.41399329900741577
      ],
      "type": "VEC3"
    },
    {
      "bufferView": 2,
      "byteOffset": 96984,
      "componentType": 5126,
      "count": 610,
      "max": [
        0.9951895475387573,
        0.9901466369628906,
        0.9798631072044373
      ],
      "min": [
        -0.9550440907478333,
        -0.9651793241500854,
        -0.9894078373908997
      ],
      "type": "VEC3"
    },
    {
      "bufferView": 1,
      "byteOffset": 29888,
      "componentType": 5126,
      "count": 610,
      "max": [
        0.04780447483062744,
        0.6000272035598755
      ],
      "min": [
        0.028894543647766113,
        0.5816601514816284
      ],
      "type": "VEC2"
    },
    {
      "bufferView": 0,
      "byteOffset": 17184,
      "componentType": 5125,
      "count": 624,
      "type": "SCALAR"
    },
    {
      "bufferView": 2,
      "byteOffset": 104304,
      "componentType": 5126,
      "count": 844,
      "max": [
        0.404834508895874,
        0.40348008275032043,
        0.3985499143600464
      ],
      "min": [
        -0.38022899627685547,
        -0.38712096214294434,
        -0.39759793877601624
      ],
      "type": "VEC3"
    },
    {
      "bufferView": 2,
      "byteOffset": 114432,
      "componentType": 5126,
      "count": 844,
      "max": [
        0.9619517922401428,
        0.9956445097923279,
        0.9421096444129944
      ],
      "min": [
        -0.9988154768943787,
        -0.9956443905830383,
        -0.931824266910553
      ],
      "type": "VEC3"
    },
    {
      "bufferView": 1,
      "byteOffset": 34768,
      "componentType": 5126,
      "count": 844,
      "max": [
        0.48845529556274414,
        0.9734899401664734
      ],
      "min": [
        0.10600390285253525,
        0.653350293636322
      ],
      "type": "VEC2"
    },
    {
      "bufferView": 0,
      "byteOffset": 19680,
      "componentType": 5125,
      "count": 1590,
      "type": "SCALAR"
    },
    {
      "bufferView": 2,
      "byteOffset": 124560,
      "componentType": 5126,
      "count": 2750,
      "max": [
        0.4228048324584961,
        0.46473750472068787,
        0.4612344801425934
      ],
      "min": [
        -0.44500303268432617,
        -0.42708778381347656,
        -0.41972315311431885
      ],
      "type": "VEC3"
    },
    {
      "bufferView": 2,
      "byteOffset": 157560,
      "componentType": 5126,
      "count": 2750,
      "max": [
        0.9939200282096863,
        0.9984219074249268,
        0.9932481050491333
      ],
      "min": [
        -0.9970481991767883,
        -0.9988080859184265,
        -0.9995508790016174
      ],
      "type": "VEC3"
    },
    {
      "bufferView": 1,
      "byteOffset": 41520,
      "componentType": 5126,
      "count": 2750,
      "max": [
        0.5772989988327026,
        0.19744321703910828
      ],
      "min": [
        0.5583890676498413,
        0.17853328585624695
      ],
      "type": "VEC2"
    },
    {
      "bufferView": 0,
      "byteOffset": 26040,
      "componentType": 5125,
      "count": 3246,
      "type": "SCALAR"
    },
    {
      "bufferView": 2,
      "byteOffset": 190560,
      "componentType": 5126,
      "count": 610,
      "max": [
        0.406221866607666,
        0.45066773891448975,
        0.4777129590511322
      ],
      "min": [
        -0.442446231842041,
        -0.45209911465644836,
        -0.41399329900741577
      ],
      "type": "VEC3"
    },
    {
      "bufferView": 2,
      "byteOffset": 197880,
      "componentType": 5126,
      "count": 610,
      "max": [
        0.9951896071434021,
        0.9901466965675354,
        0.9798631072044373
      ],
      "min": [
        -0.9550440907478333,
        -0.9651793241500854,
        -0.9894077777862549
      ],
      "type": "VEC3"
    },
    {
      "bufferView": 1,
      "byteOffset": 63520,
      "componentType": 5126,
      "count": 610,
      "max": [
        0.07487308233976364,
        0.3194979131221771
      ],
      "min": [
        0.05596315115690231,
        0.30113086104393005
      ],
      "type": "VEC2"
    },
    {
      "bufferView": 0,
      "byteOffset": 39024,
      "componentType": 5125,
      "count": 624,
      "type": "SCALAR"
    }
  ],
  "asset": {
    "extras": {
      "author": "Jacobs Development (https://sketchfab.com/Jacobs_Development)",
      "license": "CC-BY-4.0 (http://creativecommons.org/licenses/by/4.0/)",
      "source": "https://sketchfab.com/3d-models/asteroids-low-poly-791ccef91d3f46dd97997604fc7364a4",
      "title": "Asteroids - Low Poly"
    },
    "generator": "Sketchfab-14.60.0",
    "version": "2.0"
  },
  "bufferViews": [
    {
      "buffer": 0,
      "byteLength": 41520,
      "name": "floatBufferViews",
      "target": 34963
    },
    {
      "buffer": 0,
      "byteLength": 68400,
      "byteOffset": 41520,
      "byteStride": 8,
      "name": "floatBufferViews",
      "target": 34962
    },
    {
      "buffer": 0,
      "byteLength": 205200,
      "byteOffset": 109920,
      "byteStride": 12,
      "name": "floatBufferViews",
      "target": 34962
    }
  ],
  "buffers": [
    {
      "byteLength": 315120,
      "uri": "scene.bin"
    }
  ],
  "images": [
    {
      "uri": "textures/Asteroid_baseColor.png"
    }
  ],
  "materials": [
    {
      "doubleSided": true,
      "name": "Asteroid",
      "pbrMetallicRoughness": {
        "baseColorTexture": {
          "index": 0
        },
        "metallicFactor": 0.0,
        "roughnessFactor": 0.1788854381999832
      }
    }
  ],
  "meshes": [
    {
      "name": "Sphere.005_Asteroid_0",
      "primitives": [
        {
          "attributes": {
            "NORMAL": 1,
            "POSITION": 0,
            "TEXCOORD_0": 2
          },
          "indices": 3,
          "material": 0,
          "mode": 4
        }
      ]
    },
    {
      "name": "Sphere.006_Asteroid_0",
      "primitives": [
        {
          "attributes": {
            "NORMAL": 5,
            "POSITION": 4,
            "TEXCOORD_0": 6
          },
          "indices": 7,
          "material": 0,
          "mode": 4
        }
      ]
    },
    {
      "name": "Sphere.007_Asteroid_0",
      "primitives": [
        {
          "attributes": {
            "NORMAL": 9,
            "POSITION": 8,
            "TEXCOORD_0": 10
          },
          "indices": 11,
          "material": 0,
          "mode": 4
        }
      ]
    },
    {
      "name": "Sphere.008_Asteroid_0",
      "primitives": [
        {
          "attributes": {
            "NORMAL": 13,
            "POSITION": 12,
            "TEXCOORD_0": 14
          },
          "indices": 15,
          "material": 0,
          "mode": 4
        }
      ]
    },
    {
      "name": "Sphere.009_Asteroid_0",
      "primitives": [
        {
          "attributes": {
            "NORMAL": 17,
            "POSITION": 16,
            "TEXCOORD_0": 18
          },
          "indices": 19,
          "material": 0,
          "mode": 4
        }
      ]
    },
    {
      "name": "Sphere.011_Asteroid_0",
      "primitives": [
        {
          "attributes": {
            "NORMAL": 21,
            "POSITION": 20,
            "TEXCOORD_0": 22
          },
          "indices": 23,
          "material": 0,
          "mode": 4
        }
      ]
    }
  ],
  "nodes": [
    {
      "children": [
        1
      ],
      "matrix": [
        1.0,
        0.0,
        0.0,
        0.0,
        0.0,
        2.220446049250313e-16,
        -1.0,
        0.0,
        0.0,
        1.0,
        2.220446049250313e-16,
        0.0,
        0.0,
        0.0,
        0.0,
        1.0
      ],
      "name": "Sketchfab_model"
    },
    {
      "children": [
        2
      ],
      "matrix": [
        0.009999999776482582,
        0.0,
        0.0,
        0.0,
        0.0,
        0.0,
        0.009999999776482582,
        0.0,
        0.0,
        -0.009999999776482582,
        0.0,
        0.0,
        0.0,
        0.0,
        0.0,
        1.0
      ],
      "name": "asteroids.fbx"
    },
    {
      "children": [
        3,
        5,
        7,
        9,
        11,
        13
      ],
      "name": "RootNode"
    },
    {
      "children": [
        4
      ],
      "matrix": [
        100.0,
        0.0,
        0.0,
        0.0,
        0.0,
        -1.629206793918314e-05,
        -99.99999999999868,
        0.0,
        0.0,
        99.99999999999868,
        -1.629206793918314e-05,
        0.0,
        0.0,
        48.46294021606445,
        3.130154073005542e-05,
        1.0
      ],
      "name": "Sphere.005"
    },
    {
      "mesh": 0,
      "name": "Sphere.005_Asteroid_0"
    },
    {
      "children": [
        6
      ],
      "matrix": [
        100.0,
        0.0,
        0.0,
        0.0,
        0.0,
        -1.629206793918314e-05,
        -99.99999999999868,
        0.0,
        0.0,
        99.99999999999868,
        -1.629206793918314e-05,
        0.0,
        150.0,
        46.555213928222656,
        0.0,
        1.0
      ],
      "name": "Sphere.006"
    },
    {
      "mesh": 1,
      "name": "Sphere.006_Asteroid_0"
    },
    {
      "children": [
        8
      ],
      "matrix": [
        100.0,
        0.0,
        0.0,
        0.0,
        0.0,
        -1.629206793918314e-05,
        -99.99999999999868,
        0.0,
        0.0,
        99.99999999999868,
        -1.629206793918314e-05,
        0.0,
        150.0,
        200.0,
        5.924982815486146e-06,
        1.0
      ],
      "name": "Sphere.007"
    },
    {
      "mesh": 2,
      "name": "Sphere.007_Asteroid_0"
    },
    {
      "children": [
        10
      ],
      "matrix": [
        100.0,
        0.0,
        0.0,
        0.0,
        0.0,
        99.9999999999999,
        4.371138828673792e-06,
        0.0,
        0.0,
        -4.371138828673792e-06,
        99.9999999999999,
        0.0,
        -158.98928833007813,
        45.7214469909668,
        -1.968047172340448e-06,
        1.0
      ],
      "name": "Sphere.008"
    },
    {
      "mesh": 3,
      "name": "Sphere.008_Asteroid_0"
    },
    {
      "children": [
        12
      ],
      "matrix": [
        100.0,
        0.0,
        0.0,
        0.0,
        -0.0,
        -1.629206793918314e-05,
        -99.99999999999868,
        0.0,
        0.0,
        99.99999999999868,
        -1.629206793918314e-05,
        0.0,
        -147.00965881347656,
        200.0,
        3.243481842218898e-05,
        1.0
      ],
      "name": "Sphere.009"
    },
    {
      "mesh": 4,
      "name": "Sphere.009_Asteroid_0"
    },
    {
      "children": [
        14
      ],
      "matrix": [
        100.0,
        0.0,
        0.0,
        0.0,
        0.0,
        -1.629206793918314e-05,
        -99.99999999999868,
        0.0,
        0.0,
        99.99999999999868,
        -1.629206793918314e-05,
        0.0,
        0.0,
        200.0,
        0.0,
        1.0
      ],
      "name": "Sphere.011"
    },
    {
      "mesh": 5,
      "name": "Sphere.011_Asteroid_0"
    }
  ],
  "samplers": [
    {
      "magFilter": 9729,
      "minFilter": 9987,
      "wrapS": 10497,
      "wrapT": 10497
    }
  ],
  "scene": 0,
  "scenes": [
    {
      "name": "Sketchfab_Scene",
      "nodes": [
        0
      ]
    }
  ],
  "textures": [
    {
      "sampler": 0,
      "source": 0
    }
  ]
}
